<?xml version="1.0" encoding="UTF-8" standalone="no"?><!DOCTYPE svg PUBLIC "-//W3C//DTD SVG 1.1//EN" "http://www.w3.org/Graphics/SVG/1.1/DTD/svg11.dtd"><svg width="100%" height="100%" viewBox="0 0 108 108" version="1.1" xmlns="http://www.w3.org/2000/svg" xmlns:xlink="http://www.w3.org/1999/xlink" xml:space="preserve" xmlns:serif="http://www.serif.com/" style="fill-rule:evenodd;clip-rule:evenodd;stroke-linejoin:round;stroke-miterlimit:2;"><rect id="Artboard3" x="0" y="0" width="107.424" height="107.424" style="fill:none;"/><g><path d="M49.189,68.32c0,10.043 8.154,18.196 18.196,18.196c10.043,0 18.196,-8.153 18.196,-18.196c0,-10.043 -8.153,-18.196 -18.196,-18.196c-4.093,0 -5.579,-1.67 -7.5,-4.323c-2.414,-3.335 -2.607,-8.221 -2.34,-13.296c3.135,-0.86 6.434,-1.32 9.84,-1.32c20.496,0 37.135,16.64 37.135,37.135c0,20.495 -16.639,37.135 -37.135,37.135c-20.495,0 -37.135,-16.64 -37.135,-37.135c0,-13.886 7.639,-26.002 18.939,-32.373l0,32.373Z" style="fill:#202020;"/><path d="M49.189,68.32l-18.939,0l0,-66.351c10.48,1.322 17.027,6.297 18.939,15.578l0,50.773Z" style="fill:#202020;"/><g><path d="M21.843,1.969l0,82.46c-10.479,-1.323 -17.026,-6.297 -18.939,-15.578l0,-37.329l0,-13.975c1.913,-9.281 8.46,-14.256 18.939,-15.578Z" style="fill:#202020;"/></g></g></svg>